<mxfile host="app.diagrams.net" modified="2023-04-04T13:08:58.206Z" agent="Mozilla/5.0 (Macintosh; Intel Mac OS X 10_15_7) AppleWebKit/537.36 (KHTML, like Gecko) Chrome/111.0.0.0 Safari/537.36" etag="qvz4Ietd3lRGREw5pJsV" version="21.1.1" type="device">
  <diagram name="Page-1" id="EeWArtbkbApud09hwVet">
    <mxGraphModel dx="1624" dy="612" grid="1" gridSize="10" guides="1" tooltips="1" connect="1" arrows="1" fold="1" page="1" pageScale="1" pageWidth="827" pageHeight="1169" math="0" shadow="0">
      <root>
        <mxCell id="0" />
        <mxCell id="1" parent="0" />
        <mxCell id="a02TKPpFaVp6b5n0Lp3N-4" style="edgeStyle=orthogonalEdgeStyle;rounded=0;orthogonalLoop=1;jettySize=auto;html=1;entryX=0.5;entryY=0.15;entryDx=0;entryDy=0;entryPerimeter=0;" edge="1" parent="1" source="a02TKPpFaVp6b5n0Lp3N-1" target="a02TKPpFaVp6b5n0Lp3N-2">
          <mxGeometry relative="1" as="geometry" />
        </mxCell>
        <mxCell id="a02TKPpFaVp6b5n0Lp3N-1" value="View" style="shape=folder;fontStyle=1;spacingTop=10;tabWidth=40;tabHeight=14;tabPosition=left;html=1;whiteSpace=wrap;" vertex="1" parent="1">
          <mxGeometry x="100" y="200" width="150" height="80" as="geometry" />
        </mxCell>
        <mxCell id="a02TKPpFaVp6b5n0Lp3N-5" style="edgeStyle=orthogonalEdgeStyle;rounded=0;orthogonalLoop=1;jettySize=auto;html=1;entryX=0.5;entryY=0.163;entryDx=0;entryDy=0;entryPerimeter=0;" edge="1" parent="1" source="a02TKPpFaVp6b5n0Lp3N-2" target="a02TKPpFaVp6b5n0Lp3N-3">
          <mxGeometry relative="1" as="geometry" />
        </mxCell>
        <mxCell id="a02TKPpFaVp6b5n0Lp3N-2" value="ViewModel" style="shape=folder;fontStyle=1;spacingTop=10;tabWidth=40;tabHeight=14;tabPosition=left;html=1;whiteSpace=wrap;" vertex="1" parent="1">
          <mxGeometry x="100" y="320" width="150" height="80" as="geometry" />
        </mxCell>
        <mxCell id="a02TKPpFaVp6b5n0Lp3N-3" value="Model" style="shape=folder;fontStyle=1;spacingTop=10;tabWidth=40;tabHeight=14;tabPosition=left;html=1;whiteSpace=wrap;" vertex="1" parent="1">
          <mxGeometry x="100" y="450" width="150" height="80" as="geometry" />
        </mxCell>
        <mxCell id="a02TKPpFaVp6b5n0Lp3N-6" value="&lt;font style=&quot;font-size: 21px;&quot;&gt;Dependencies&lt;/font&gt;" style="text;html=1;strokeColor=none;fillColor=none;align=center;verticalAlign=middle;whiteSpace=wrap;rounded=0;" vertex="1" parent="1">
          <mxGeometry x="50" y="90" width="270" height="80" as="geometry" />
        </mxCell>
        <mxCell id="a02TKPpFaVp6b5n0Lp3N-8" value="View" style="shape=folder;fontStyle=1;spacingTop=10;tabWidth=40;tabHeight=14;tabPosition=left;html=1;whiteSpace=wrap;" vertex="1" parent="1">
          <mxGeometry x="470" y="195" width="150" height="80" as="geometry" />
        </mxCell>
        <mxCell id="a02TKPpFaVp6b5n0Lp3N-10" value="ViewModel" style="shape=folder;fontStyle=1;spacingTop=10;tabWidth=40;tabHeight=14;tabPosition=left;html=1;whiteSpace=wrap;" vertex="1" parent="1">
          <mxGeometry x="470" y="315" width="150" height="80" as="geometry" />
        </mxCell>
        <mxCell id="a02TKPpFaVp6b5n0Lp3N-11" value="Model" style="shape=folder;fontStyle=1;spacingTop=10;tabWidth=40;tabHeight=14;tabPosition=left;html=1;whiteSpace=wrap;" vertex="1" parent="1">
          <mxGeometry x="470" y="445" width="150" height="80" as="geometry" />
        </mxCell>
        <mxCell id="a02TKPpFaVp6b5n0Lp3N-12" value="" style="endArrow=block;endFill=1;html=1;edgeStyle=orthogonalEdgeStyle;align=left;verticalAlign=top;rounded=0;exitX=0.25;exitY=1;exitDx=0;exitDy=0;exitPerimeter=0;entryX=0.367;entryY=0.15;entryDx=0;entryDy=0;entryPerimeter=0;" edge="1" parent="1" source="a02TKPpFaVp6b5n0Lp3N-8" target="a02TKPpFaVp6b5n0Lp3N-10">
          <mxGeometry x="-1" relative="1" as="geometry">
            <mxPoint x="330" y="510" as="sourcePoint" />
            <mxPoint x="508" y="320" as="targetPoint" />
          </mxGeometry>
        </mxCell>
        <mxCell id="a02TKPpFaVp6b5n0Lp3N-14" value="" style="endArrow=block;endFill=1;html=1;edgeStyle=orthogonalEdgeStyle;align=left;verticalAlign=top;rounded=0;exitX=0.25;exitY=1;exitDx=0;exitDy=0;exitPerimeter=0;entryX=0.433;entryY=0.175;entryDx=0;entryDy=0;entryPerimeter=0;" edge="1" parent="1" source="a02TKPpFaVp6b5n0Lp3N-10" target="a02TKPpFaVp6b5n0Lp3N-11">
          <mxGeometry x="-1" relative="1" as="geometry">
            <mxPoint x="518" y="400" as="sourcePoint" />
            <mxPoint x="535" y="452" as="targetPoint" />
          </mxGeometry>
        </mxCell>
        <mxCell id="a02TKPpFaVp6b5n0Lp3N-15" value="Data bindings, &lt;br&gt;method call, &lt;br&gt;properties" style="text;align=center;fontStyle=1;verticalAlign=middle;spacingLeft=3;spacingRight=3;strokeColor=none;rotatable=0;points=[[0,0.5],[1,0.5]];portConstraint=eastwest;html=1;" vertex="1" parent="1">
          <mxGeometry x="420" y="400" width="80" height="40" as="geometry" />
        </mxCell>
        <mxCell id="a02TKPpFaVp6b5n0Lp3N-16" value="Commands" style="text;align=center;fontStyle=1;verticalAlign=middle;spacingLeft=3;spacingRight=3;strokeColor=none;rotatable=0;points=[[0,0.5],[1,0.5]];portConstraint=eastwest;html=1;" vertex="1" parent="1">
          <mxGeometry x="430" y="280" width="80" height="26" as="geometry" />
        </mxCell>
        <mxCell id="a02TKPpFaVp6b5n0Lp3N-17" value="" style="endArrow=block;endFill=1;html=1;edgeStyle=orthogonalEdgeStyle;align=left;verticalAlign=top;rounded=0;exitX=0.75;exitY=1;exitDx=0;exitDy=0;exitPerimeter=0;entryX=0;entryY=0;entryDx=95;entryDy=14;entryPerimeter=0;startArrow=block;startFill=1;" edge="1" parent="1" source="a02TKPpFaVp6b5n0Lp3N-8" target="a02TKPpFaVp6b5n0Lp3N-10">
          <mxGeometry x="-1" relative="1" as="geometry">
            <mxPoint x="430" y="600" as="sourcePoint" />
            <mxPoint x="590" y="600" as="targetPoint" />
          </mxGeometry>
        </mxCell>
        <mxCell id="a02TKPpFaVp6b5n0Lp3N-19" value="" style="endArrow=none;endFill=0;html=1;edgeStyle=orthogonalEdgeStyle;align=left;verticalAlign=top;rounded=0;entryX=0;entryY=0;entryDx=95;entryDy=14;entryPerimeter=0;startArrow=block;startFill=1;" edge="1" parent="1" target="a02TKPpFaVp6b5n0Lp3N-11">
          <mxGeometry x="-1" relative="1" as="geometry">
            <mxPoint x="583" y="430" as="sourcePoint" />
            <mxPoint x="580" y="454" as="targetPoint" />
            <Array as="points">
              <mxPoint x="583" y="450" />
              <mxPoint x="565" y="450" />
            </Array>
          </mxGeometry>
        </mxCell>
        <mxCell id="a02TKPpFaVp6b5n0Lp3N-20" value="Data Bindings" style="text;align=center;fontStyle=1;verticalAlign=middle;spacingLeft=3;spacingRight=3;strokeColor=none;rotatable=0;points=[[0,0.5],[1,0.5]];portConstraint=eastwest;html=1;" vertex="1" parent="1">
          <mxGeometry x="590" y="289" width="80" height="26" as="geometry" />
        </mxCell>
        <mxCell id="a02TKPpFaVp6b5n0Lp3N-22" value="" style="html=1;verticalAlign=bottom;startArrow=oval;startFill=0;endArrow=none;startSize=6;endSize=8;edgeStyle=elbowEdgeStyle;elbow=vertical;curved=0;rounded=0;endFill=0;entryX=0.75;entryY=1;entryDx=0;entryDy=0;entryPerimeter=0;" edge="1" parent="1" target="a02TKPpFaVp6b5n0Lp3N-10">
          <mxGeometry width="80" relative="1" as="geometry">
            <mxPoint x="583" y="426.5" as="sourcePoint" />
            <mxPoint x="663" y="426.5" as="targetPoint" />
          </mxGeometry>
        </mxCell>
        <mxCell id="a02TKPpFaVp6b5n0Lp3N-23" value="Events" style="text;align=center;fontStyle=1;verticalAlign=middle;spacingLeft=3;spacingRight=3;strokeColor=none;rotatable=0;points=[[0,0.5],[1,0.5]];portConstraint=eastwest;html=1;" vertex="1" parent="1">
          <mxGeometry x="580" y="407" width="80" height="26" as="geometry" />
        </mxCell>
        <mxCell id="a02TKPpFaVp6b5n0Lp3N-24" value="&lt;font style=&quot;font-size: 21px;&quot;&gt;Data flow&lt;/font&gt;" style="text;html=1;strokeColor=none;fillColor=none;align=center;verticalAlign=middle;whiteSpace=wrap;rounded=0;" vertex="1" parent="1">
          <mxGeometry x="414" y="90" width="270" height="80" as="geometry" />
        </mxCell>
        <mxCell id="a02TKPpFaVp6b5n0Lp3N-33" style="edgeStyle=orthogonalEdgeStyle;rounded=0;orthogonalLoop=1;jettySize=auto;html=1;entryX=0.495;entryY=0.133;entryDx=0;entryDy=0;entryPerimeter=0;" edge="1" parent="1" source="a02TKPpFaVp6b5n0Lp3N-25" target="a02TKPpFaVp6b5n0Lp3N-32">
          <mxGeometry relative="1" as="geometry" />
        </mxCell>
        <mxCell id="a02TKPpFaVp6b5n0Lp3N-25" value="View" style="shape=folder;fontStyle=1;spacingTop=10;tabWidth=40;tabHeight=14;tabPosition=left;html=1;whiteSpace=wrap;" vertex="1" parent="1">
          <mxGeometry x="100" y="660" width="190" height="90" as="geometry" />
        </mxCell>
        <mxCell id="a02TKPpFaVp6b5n0Lp3N-35" style="edgeStyle=orthogonalEdgeStyle;rounded=0;orthogonalLoop=1;jettySize=auto;html=1;entryX=0.495;entryY=0.144;entryDx=0;entryDy=0;entryPerimeter=0;" edge="1" parent="1" source="a02TKPpFaVp6b5n0Lp3N-26" target="a02TKPpFaVp6b5n0Lp3N-27">
          <mxGeometry relative="1" as="geometry" />
        </mxCell>
        <mxCell id="a02TKPpFaVp6b5n0Lp3N-26" value="Model" style="shape=folder;fontStyle=1;spacingTop=10;tabWidth=40;tabHeight=14;tabPosition=left;html=1;whiteSpace=wrap;" vertex="1" parent="1">
          <mxGeometry x="100" y="910" width="190" height="90" as="geometry" />
        </mxCell>
        <mxCell id="a02TKPpFaVp6b5n0Lp3N-27" value="DAL" style="shape=folder;fontStyle=1;spacingTop=10;tabWidth=40;tabHeight=14;tabPosition=left;html=1;whiteSpace=wrap;" vertex="1" parent="1">
          <mxGeometry x="100" y="1040" width="190" height="90" as="geometry" />
        </mxCell>
        <mxCell id="a02TKPpFaVp6b5n0Lp3N-34" style="edgeStyle=orthogonalEdgeStyle;rounded=0;orthogonalLoop=1;jettySize=auto;html=1;" edge="1" parent="1" source="a02TKPpFaVp6b5n0Lp3N-32">
          <mxGeometry relative="1" as="geometry">
            <mxPoint x="195" y="920" as="targetPoint" />
          </mxGeometry>
        </mxCell>
        <mxCell id="a02TKPpFaVp6b5n0Lp3N-32" value="ViewModel" style="shape=folder;fontStyle=1;spacingTop=10;tabWidth=40;tabHeight=14;tabPosition=left;html=1;whiteSpace=wrap;" vertex="1" parent="1">
          <mxGeometry x="100" y="780" width="190" height="90" as="geometry" />
        </mxCell>
        <mxCell id="a02TKPpFaVp6b5n0Lp3N-37" value="" style="endArrow=none;dashed=1;html=1;rounded=0;" edge="1" parent="1">
          <mxGeometry width="50" height="50" relative="1" as="geometry">
            <mxPoint x="40" y="900" as="sourcePoint" />
            <mxPoint x="360" y="900" as="targetPoint" />
          </mxGeometry>
        </mxCell>
        <mxCell id="a02TKPpFaVp6b5n0Lp3N-38" value="&lt;font style=&quot;font-size: 17px;&quot;&gt;UIL&lt;/font&gt;" style="text;align=center;fontStyle=1;verticalAlign=middle;spacingLeft=3;spacingRight=3;strokeColor=none;rotatable=0;points=[[0,0.5],[1,0.5]];portConstraint=eastwest;html=1;" vertex="1" parent="1">
          <mxGeometry x="-10" y="770" width="80" height="26" as="geometry" />
        </mxCell>
        <mxCell id="a02TKPpFaVp6b5n0Lp3N-46" style="edgeStyle=orthogonalEdgeStyle;rounded=0;orthogonalLoop=1;jettySize=auto;html=1;entryX=0.5;entryY=0.122;entryDx=0;entryDy=0;entryPerimeter=0;" edge="1" parent="1" source="a02TKPpFaVp6b5n0Lp3N-40" target="a02TKPpFaVp6b5n0Lp3N-41">
          <mxGeometry relative="1" as="geometry" />
        </mxCell>
        <mxCell id="a02TKPpFaVp6b5n0Lp3N-40" value="View" style="shape=folder;fontStyle=1;spacingTop=10;tabWidth=40;tabHeight=14;tabPosition=left;html=1;whiteSpace=wrap;" vertex="1" parent="1">
          <mxGeometry x="470" y="660" width="190" height="90" as="geometry" />
        </mxCell>
        <mxCell id="a02TKPpFaVp6b5n0Lp3N-47" style="edgeStyle=orthogonalEdgeStyle;rounded=0;orthogonalLoop=1;jettySize=auto;html=1;entryX=0.5;entryY=0.111;entryDx=0;entryDy=0;entryPerimeter=0;" edge="1" parent="1" source="a02TKPpFaVp6b5n0Lp3N-41" target="a02TKPpFaVp6b5n0Lp3N-42">
          <mxGeometry relative="1" as="geometry" />
        </mxCell>
        <mxCell id="a02TKPpFaVp6b5n0Lp3N-41" value="ViewModel" style="shape=folder;fontStyle=1;spacingTop=10;tabWidth=40;tabHeight=14;tabPosition=left;html=1;whiteSpace=wrap;" vertex="1" parent="1">
          <mxGeometry x="470" y="810" width="190" height="90" as="geometry" />
        </mxCell>
        <mxCell id="a02TKPpFaVp6b5n0Lp3N-42" value="Model" style="shape=folder;fontStyle=1;spacingTop=10;tabWidth=40;tabHeight=14;tabPosition=left;html=1;whiteSpace=wrap;" vertex="1" parent="1">
          <mxGeometry x="470" y="960" width="190" height="90" as="geometry" />
        </mxCell>
        <mxCell id="a02TKPpFaVp6b5n0Lp3N-43" value="" style="endArrow=none;dashed=1;html=1;rounded=0;" edge="1" parent="1">
          <mxGeometry width="50" height="50" relative="1" as="geometry">
            <mxPoint x="409" y="940" as="sourcePoint" />
            <mxPoint x="729" y="940" as="targetPoint" />
          </mxGeometry>
        </mxCell>
        <mxCell id="a02TKPpFaVp6b5n0Lp3N-44" value="" style="endArrow=none;dashed=1;html=1;rounded=0;" edge="1" parent="1">
          <mxGeometry width="50" height="50" relative="1" as="geometry">
            <mxPoint x="411" y="782.5" as="sourcePoint" />
            <mxPoint x="731" y="782.5" as="targetPoint" />
          </mxGeometry>
        </mxCell>
        <mxCell id="a02TKPpFaVp6b5n0Lp3N-45" value="" style="endArrow=none;dashed=1;html=1;rounded=0;" edge="1" parent="1">
          <mxGeometry width="50" height="50" relative="1" as="geometry">
            <mxPoint x="15" y="1020" as="sourcePoint" />
            <mxPoint x="335" y="1020" as="targetPoint" />
          </mxGeometry>
        </mxCell>
        <mxCell id="a02TKPpFaVp6b5n0Lp3N-48" value="&lt;font style=&quot;font-size: 17px;&quot;&gt;BLL&lt;/font&gt;" style="text;align=center;fontStyle=1;verticalAlign=middle;spacingLeft=3;spacingRight=3;strokeColor=none;rotatable=0;points=[[0,0.5],[1,0.5]];portConstraint=eastwest;html=1;" vertex="1" parent="1">
          <mxGeometry x="-10" y="942" width="80" height="26" as="geometry" />
        </mxCell>
        <mxCell id="a02TKPpFaVp6b5n0Lp3N-49" value="&lt;font style=&quot;font-size: 17px;&quot;&gt;UIL&lt;/font&gt;" style="text;align=center;fontStyle=1;verticalAlign=middle;spacingLeft=3;spacingRight=3;strokeColor=none;rotatable=0;points=[[0,0.5],[1,0.5]];portConstraint=eastwest;html=1;" vertex="1" parent="1">
          <mxGeometry x="710" y="692" width="80" height="26" as="geometry" />
        </mxCell>
        <mxCell id="a02TKPpFaVp6b5n0Lp3N-50" value="&lt;font style=&quot;font-size: 17px;&quot;&gt;BLL&lt;/font&gt;" style="text;align=center;fontStyle=1;verticalAlign=middle;spacingLeft=3;spacingRight=3;strokeColor=none;rotatable=0;points=[[0,0.5],[1,0.5]];portConstraint=eastwest;html=1;" vertex="1" parent="1">
          <mxGeometry x="700" y="844" width="80" height="26" as="geometry" />
        </mxCell>
        <mxCell id="a02TKPpFaVp6b5n0Lp3N-56" style="edgeStyle=orthogonalEdgeStyle;rounded=0;orthogonalLoop=1;jettySize=auto;html=1;entryX=0.5;entryY=0.163;entryDx=0;entryDy=0;entryPerimeter=0;" edge="1" parent="1" source="a02TKPpFaVp6b5n0Lp3N-52" target="a02TKPpFaVp6b5n0Lp3N-54">
          <mxGeometry relative="1" as="geometry" />
        </mxCell>
        <mxCell id="a02TKPpFaVp6b5n0Lp3N-52" value="View" style="shape=folder;fontStyle=1;spacingTop=10;tabWidth=40;tabHeight=14;tabPosition=left;html=1;whiteSpace=wrap;" vertex="1" parent="1">
          <mxGeometry x="-590" y="253" width="150" height="80" as="geometry" />
        </mxCell>
        <mxCell id="a02TKPpFaVp6b5n0Lp3N-53" value="IView" style="shape=folder;fontStyle=1;spacingTop=10;tabWidth=40;tabHeight=14;tabPosition=left;html=1;whiteSpace=wrap;" vertex="1" parent="1">
          <mxGeometry x="-790" y="315" width="150" height="80" as="geometry" />
        </mxCell>
        <mxCell id="a02TKPpFaVp6b5n0Lp3N-57" style="edgeStyle=orthogonalEdgeStyle;rounded=0;orthogonalLoop=1;jettySize=auto;html=1;entryX=0;entryY=0;entryDx=150;entryDy=63.5;entryPerimeter=0;" edge="1" parent="1" source="a02TKPpFaVp6b5n0Lp3N-54" target="a02TKPpFaVp6b5n0Lp3N-53">
          <mxGeometry relative="1" as="geometry" />
        </mxCell>
        <mxCell id="a02TKPpFaVp6b5n0Lp3N-58" style="edgeStyle=orthogonalEdgeStyle;rounded=0;orthogonalLoop=1;jettySize=auto;html=1;entryX=0.495;entryY=0.168;entryDx=0;entryDy=0;entryPerimeter=0;" edge="1" parent="1" source="a02TKPpFaVp6b5n0Lp3N-54" target="a02TKPpFaVp6b5n0Lp3N-55">
          <mxGeometry relative="1" as="geometry">
            <mxPoint x="-510" y="570" as="targetPoint" />
          </mxGeometry>
        </mxCell>
        <mxCell id="a02TKPpFaVp6b5n0Lp3N-54" value="Presenter" style="shape=folder;fontStyle=1;spacingTop=10;tabWidth=40;tabHeight=14;tabPosition=left;html=1;whiteSpace=wrap;" vertex="1" parent="1">
          <mxGeometry x="-590" y="420" width="150" height="80" as="geometry" />
        </mxCell>
        <mxCell id="a02TKPpFaVp6b5n0Lp3N-55" value="Model" style="shape=folder;fontStyle=1;spacingTop=10;tabWidth=40;tabHeight=14;tabPosition=left;html=1;whiteSpace=wrap;" vertex="1" parent="1">
          <mxGeometry x="-590" y="580" width="150" height="80" as="geometry" />
        </mxCell>
        <mxCell id="a02TKPpFaVp6b5n0Lp3N-61" value="" style="endArrow=block;dashed=1;endFill=0;endSize=12;html=1;rounded=0;entryX=0;entryY=0;entryDx=150;entryDy=30.5;entryPerimeter=0;exitX=0;exitY=0;exitDx=0;exitDy=47;exitPerimeter=0;" edge="1" parent="1" source="a02TKPpFaVp6b5n0Lp3N-52" target="a02TKPpFaVp6b5n0Lp3N-53">
          <mxGeometry width="160" relative="1" as="geometry">
            <mxPoint x="-520" y="730" as="sourcePoint" />
            <mxPoint x="-360" y="730" as="targetPoint" />
            <Array as="points">
              <mxPoint x="-610" y="300" />
              <mxPoint x="-610" y="346" />
            </Array>
          </mxGeometry>
        </mxCell>
        <mxCell id="a02TKPpFaVp6b5n0Lp3N-64" value="&lt;br&gt;" style="html=1;verticalAlign=bottom;endArrow=block;edgeStyle=elbowEdgeStyle;elbow=vertical;curved=0;rounded=0;exitX=0.8;exitY=0.158;exitDx=0;exitDy=0;exitPerimeter=0;" edge="1" parent="1" source="a02TKPpFaVp6b5n0Lp3N-55">
          <mxGeometry width="80" relative="1" as="geometry">
            <mxPoint x="-470" y="584" as="sourcePoint" />
            <mxPoint x="-470" y="554" as="targetPoint" />
          </mxGeometry>
        </mxCell>
        <mxCell id="a02TKPpFaVp6b5n0Lp3N-66" value="" style="html=1;verticalAlign=bottom;endArrow=oval;edgeStyle=elbowEdgeStyle;elbow=vertical;curved=0;rounded=0;endFill=0;exitX=0.75;exitY=1;exitDx=0;exitDy=0;exitPerimeter=0;" edge="1" parent="1">
          <mxGeometry width="80" relative="1" as="geometry">
            <mxPoint x="-480.5" y="500" as="sourcePoint" />
            <mxPoint x="-470" y="550" as="targetPoint" />
          </mxGeometry>
        </mxCell>
      </root>
    </mxGraphModel>
  </diagram>
</mxfile>
